<svg xmlns="http://www.w3.org/2000/svg" viewBox="65 240 462 50">
  <style>.st0 { fill: currentColor; }</style>
<path class="st0" d="M76.2,249.8h-10.7v-4.6h26.3v4.6h-10.9v35.6h-4.7v-35.6Z"/>
<path class="st0" d="M98.2,245.1h4.7v16.5h18.3v-16.5h4.7v40.2h-4.7v-19.1h-18.3v19.1h-4.7v-40.2Z"/>
<path class="st0" d="M135.6,245.1h25.2v4.6h-20.5v11.9h14.2v4.6h-14.2v14.4h20.5v4.6h-25.2v-40.2Z"/>
<path class="st0" d="M185.8,245.1h23.9v4.6h-19.2v11.9h13.6v4.6h-13.6v19.1h-4.7v-40.2Z"/>
<path class="st0" d="M220.9,283.1l-4-5.3-1.2-4v-28.7h4.7v28.1l.7,2.5,2.7,3.6,5,1.8h3.6l5-1.8,2.7-3.6.7-2.5v-28.1h4.7v28.7l-1.2,4-4,5.3-7.2,2.7h-5l-7.2-2.7Z"/>
<path class="st0" d="M262.5,249.8h-10.7v-4.6h26.3v4.6h-10.9v35.6h-4.7v-35.6Z"/>
<path class="st0" d="M289.5,283.1l-4-5.3-1.2-4v-28.7h4.7v28.1l.7,2.5,2.7,3.6,5,1.8h3.6l5-1.8,2.7-3.6.7-2.5v-28.1h4.7v28.7l-1.2,4-4,5.3-7.2,2.7h-5l-7.2-2.7Z"/>
<path class="st0" d="M323.8,245.1h16.7l5.3,1.4,4.2,4.2,1.6,5.7-1.5,5.5-2.8,4.1-3.3,1.8,7.8,17.6h-5.2l-7.3-16.7h-10.8v16.7h-4.7v-40.2ZM340.7,263.9l3.4-1.6,1.6-2.4,1-3.3-1-3.4-2.4-2.4-3.3-1h-11.5v14.2h12.3Z"/>
<path class="st0" d="M359,245.1h25.2v4.6h-20.5v11.9h14.2v4.6h-14.2v14.4h20.5v4.6h-25.2v-40.2Z"/>
<path class="st0" d="M409.2,245.1h23.9v4.6h-19.2v11.9h13.6v4.6h-13.6v19.1h-4.7v-40.2Z"/>
<path class="st0" d="M439.3,245.1h4.7v40.2h-4.7v-40.2Z"/>
<path class="st0" d="M453.7,245.1h16.7l5.3,1.4,4.2,4.2,1.6,5.7-1.5,5.5-2.8,4.1-3.3,1.8,7.8,17.6h-5.2l-7.3-16.7h-10.8v16.7h-4.7v-40.2ZM470.6,263.9l3.4-1.6,1.6-2.4,1-3.3-1-3.4-2.4-2.4-3.3-1h-11.5v14.2h12.3Z"/>
<path class="st0" d="M488.9,245.1h4.6l13.7,30.2,13.7-30.2h4.6v40.2h-4.7v-29.5l-11.3,25h-4.7l-11.3-25v29.5h-4.7v-40.2Z"/>
</svg>